<svg xmlns="http://www.w3.org/2000/svg" viewBox="0 0 720 360" font-family="Inter, system-ui, sans-serif">
  <defs>
    <linearGradient id="curveFill" x1="0" x2="0" y1="0" y2="1">
      <stop offset="0%" stop-color="#111" stop-opacity="0.06"/>
      <stop offset="100%" stop-color="#111" stop-opacity="0"/>
    </linearGradient>
  </defs>
  <rect width="720" height="360" fill="#fafafa"/>
  <line x1="60" y1="300" x2="680" y2="300" stroke="#ccc" stroke-width="1"/>
  <path d="M 60 250 Q 180 80, 280 90 Q 380 110, 420 200 Q 460 290, 540 270 Q 620 250, 680 220" fill="none" stroke="#111" stroke-width="2.5" stroke-linecap="round"/>
  <path d="M 60 250 Q 180 80, 280 90 Q 380 110, 420 200 Q 460 290, 540 270 Q 620 250, 680 220 L 680 300 L 60 300 Z" fill="url(#curveFill)"/>
  <circle cx="170" cy="110" r="5" fill="#111"/>
  <circle cx="420" cy="200" r="5" fill="#111"/>
  <circle cx="650" cy="225" r="5" fill="#111"/>
  <text x="170" y="80" text-anchor="middle" font-size="14" font-weight="600" fill="#111">Phase 1</text>
  <text x="170" y="335" text-anchor="middle" font-size="11" fill="#555" letter-spacing="1.5">FANTASTICAL ERA</text>
  <text x="420" y="180" text-anchor="middle" font-size="14" font-weight="600" fill="#111">Phase 2</text>
  <text x="420" y="335" text-anchor="middle" font-size="11" fill="#555" letter-spacing="1.5">AI WHISPERER</text>
  <text x="640" y="200" text-anchor="middle" font-size="14" font-weight="600" fill="#111">Phase 3</text>
  <text x="640" y="335" text-anchor="middle" font-size="11" fill="#555" letter-spacing="1.5">BIG RESET</text>
  <text x="60" y="40" font-size="11" fill="#999" letter-spacing="1.5">EXCITEMENT</text>
  <text x="660" y="40" text-anchor="end" font-size="11" fill="#999" letter-spacing="1.5">DISCIPLINE</text>
</svg>
