<svg xmlns="http://www.w3.org/2000/svg" viewBox="0 0 1200 630" font-family="Inter, system-ui, sans-serif">
  <defs>
    <linearGradient id="cardBg" x1="0" x2="1" y1="0" y2="1">
      <stop offset="0%" stop-color="#fafafa"/>
      <stop offset="100%" stop-color="#f0f0f2"/>
    </linearGradient>
    <linearGradient id="curveFill" x1="0" x2="0" y1="0" y2="1">
      <stop offset="0%" stop-color="#111" stop-opacity="0.08"/>
      <stop offset="100%" stop-color="#111" stop-opacity="0"/>
    </linearGradient>
  </defs>

  <rect width="1200" height="630" fill="url(#cardBg)"/>

  <!-- Brand strip -->
  <text x="80" y="80" font-size="14" font-weight="600" letter-spacing="3" fill="#111">AARON EDWARDS</text>
  <text x="80" y="100" font-size="12" letter-spacing="2" fill="#999">INSIGHTS</text>
  <text x="1120" y="80" text-anchor="end" font-size="13" letter-spacing="1" fill="#999">aaroncharlesedwards.com</text>

  <!-- Title -->
  <text x="80" y="200" font-family="Playfair Display, Georgia, serif" font-size="68" font-weight="700" fill="#111" letter-spacing="-1">4 Months Down</text>
  <text x="80" y="276" font-family="Playfair Display, Georgia, serif" font-size="68" font-weight="700" fill="#111" letter-spacing="-1">the AI Engineering Hole</text>

  <!-- Subtitle -->
  <text x="80" y="332" font-size="20" fill="#555">Three phases. One I'm still in. Notes from the build.</text>

  <!-- Curve illustration -->
  <g transform="translate(80, 380)">
    <line x1="0" y1="180" x2="1040" y2="180" stroke="#ccc" stroke-width="1"/>
    <path d="M 0 130 Q 200 -20, 320 -10 Q 440 10, 480 100 Q 540 200, 660 180 Q 820 160, 1040 130" fill="none" stroke="#111" stroke-width="3" stroke-linecap="round"/>
    <path d="M 0 130 Q 200 -20, 320 -10 Q 440 10, 480 100 Q 540 200, 660 180 Q 820 160, 1040 130 L 1040 180 L 0 180 Z" fill="url(#curveFill)"/>
    <circle cx="220" cy="20" r="7" fill="#111"/>
    <circle cx="490" cy="105" r="7" fill="#111"/>
    <circle cx="900" cy="155" r="7" fill="#111"/>
    <text x="220" y="-4" text-anchor="middle" font-size="13" font-weight="600" fill="#111" letter-spacing="1">PHASE 1</text>
    <text x="220" y="225" text-anchor="middle" font-size="12" fill="#777" letter-spacing="2">FANTASTICAL</text>
    <text x="490" y="85" text-anchor="middle" font-size="13" font-weight="600" fill="#111" letter-spacing="1">PHASE 2</text>
    <text x="490" y="225" text-anchor="middle" font-size="12" fill="#777" letter-spacing="2">AI WHISPERER</text>
    <text x="900" y="135" text-anchor="middle" font-size="13" font-weight="600" fill="#111" letter-spacing="1">PHASE 3</text>
    <text x="900" y="225" text-anchor="middle" font-size="12" fill="#777" letter-spacing="2">BIG RESET</text>
  </g>

</svg>
