<?xml version="1.0" encoding="utf-8"?>
<!-- Generator: Adobe Illustrator 25.2.1, SVG Export Plug-In . SVG Version: 6.00 Build 0)  -->
<svg version="1.1" id="Layer_1" xmlns="http://www.w3.org/2000/svg" xmlns:xlink="http://www.w3.org/1999/xlink" x="0px" y="0px"
	 viewBox="0 0 173 71" style="enable-background:new 0 0 173 71;" xml:space="preserve">
<style type="text/css">
	.st0{clip-path:url(#SVGID_2_);}
</style>
<g>
	<defs>
		<rect id="SVGID_1_" width="173" height="154"/>
	</defs>
	<clipPath id="SVGID_2_">
		<use xlink:href="#SVGID_1_"  style="overflow:visible;"/>
	</clipPath>
	<g class="st0">
		<path d="M130.4,70.4h7.3V34.3h7V28h-21.4v6.3h7.1V70.4z M120.3,37.7c-0.6-6-4.2-10.3-10.1-10.3c-7.2,0-11.3,3.8-11.3,10.6
			c0,12.2,14.8,14.4,14.8,22.8c0,2.5-1.7,3.9-4.2,3.9c-2.3,0-4.1-2.1-4.3-6.4l-6.9,1c0.3,6.3,4.2,11.8,10.9,11.8
			c6.8,0,11.5-3.9,11.5-10.9c0-11.5-14.8-15-14.8-22.2c0-2.6,1.3-4.2,3.6-4.2c1.6,0,3.6,1.1,3.9,4.7L120.3,37.7z M78,53
			c1.3,0,2.5-0.1,3.8-0.2l5.2,17.6h7.4l-6.2-19.2c2.5-1.1,5.1-3.9,5.1-10.7c0-9-4.2-12.5-12.3-12.5H70.7v42.4H78V53z M78,34h2.6
			c3.9,0,5.4,1.5,5.4,6.5S84.5,47,80.6,47H78V34z M62.6,28h-7.3v42.4h7.3V28z M35.6,70.4V51.6h9.8v-6.3h-9.8V34.3h13V28H28.3v42.4
			H35.6z"/>
		<path d="M164.7,71V8.3H8.3V71H0V0l173,0l0,70.9H164.7z"/>
	</g>
</g>
</svg>
