<svg xmlns="http://www.w3.org/2000/svg" viewBox="0 0 173 142" fill="white">
  <g>
    <path d="M130.4,70.4h7.3V34.3h7V28h-21.4v6.3h7.1V70.4z M120.3,37.7c-0.6-6-4.2-10.3-10.1-10.3c-7.2,0-11.3,3.8-11.3,10.6
      c0,12.2,14.8,14.4,14.8,22.8c0,2.5-1.7,3.9-4.2,3.9c-2.3,0-4.1-2.1-4.3-6.4l-6.9,1c0.3,6.3,4.2,11.8,10.9,11.8
      c6.8,0,11.5-3.9,11.5-10.9c0-11.5-14.8-15-14.8-22.2c0-2.6,1.3-4.2,3.6-4.2c1.6,0,3.6,1.1,3.9,4.7L120.3,37.7z M78,53
      c1.3,0,2.5-0.1,3.8-0.2l5.2,17.6h7.4l-6.2-19.2c2.5-1.1,5.1-3.9,5.1-10.7c0-9-4.2-12.5-12.3-12.5H70.7v42.4H78V53z M78,34h2.6
      c3.9,0,5.4,1.5,5.4,6.5S84.5,47,80.6,47H78V34z M62.6,28h-7.3v42.4h7.3V28z M35.6,70.4V51.6h9.8v-6.3h-9.8V34.3h13V28H28.3v42.4
      H35.6z"/>
    <path d="M164.7,71V8.3H8.3V71H0V0l173,0l0,70.9H164.7z"/>
  </g>
  <g transform="translate(0, 71)">
    <path d="M150.5,43v-6.3h-13V24.2h9.4v-6.3h-9.4V6.9h12.2V0.6h-19.5V43H150.5z M124.3,10.3c-0.6-6-4.2-10.3-10.1-10.3
      c-7.2,0-11.3,3.8-11.3,10.6c0,12.2,14.8,14.4,14.8,22.8c0,2.5-1.7,3.9-4.2,3.9c-2.3,0-4.1-2.1-4.3-6.4l-6.9,1
      c0.3,6.3,4.2,11.8,10.9,11.8c6.8,0,11.5-3.9,11.5-10.9c0-11.5-14.8-15-14.8-22.2c0-2.6,1.3-4.2,3.6-4.2c1.6,0,3.6,1.1,3.9,4.7
      L124.3,10.3z M82,11c0-3.2,0.9-4.7,3.9-4.7s3.9,1.5,3.9,4.7v21.5c0,3.2-0.9,4.7-3.9,4.7S82,35.7,82,32.5V11z M74.7,32.7
      c0,6,3.5,10.9,11.2,10.9s11.2-4.9,11.2-10.9V10.9c0-6-3.5-10.9-11.2-10.9S74.7,4.9,74.7,10.9V32.7z M70.3,43v-6.3H58.8V0.6h-7.3
      V43H70.3z M44.5,14.7v-3.1C44.5,5.3,41,0,33.7,0C26,0,22.5,4.9,22.5,10.9v21.9c0,6,3.5,10.9,11.2,10.9c7.3,0,10.8-4.9,10.8-10.9
      v-4.9h-7.3V33c0,2.8-0.9,4.3-3.5,4.3c-2.9,0-3.9-1.5-3.9-4.7V11c0-3.2,0.9-4.7,3.9-4.7c1.9,0,3.5,1.5,3.5,5.1v3.3L44.5,14.7z"/>
    <path d="M164.7,0.1v62.6H8.3V0.1H0v71l173,0l0-70.9H164.7z"/>
  </g>
</svg>
