<?xml version="1.0" encoding="utf-8"?>
<!-- Generator: Adobe Illustrator 25.2.1, SVG Export Plug-In . SVG Version: 6.00 Build 0)  -->
<svg version="1.1" id="Layer_1" xmlns="http://www.w3.org/2000/svg" xmlns:xlink="http://www.w3.org/1999/xlink" x="0px" y="0px"
	 viewBox="0 0 173 71" style="enable-background:new 0 0 173 71;" xml:space="preserve">
<style type="text/css">
	.st0{clip-path:url(#SVGID_2_);}
</style>
<g>
	<defs>
		<rect id="SVGID_1_" y="-83" width="173" height="154"/>
	</defs>
	<clipPath id="SVGID_2_">
		<use xlink:href="#SVGID_1_"  style="overflow:visible;"/>
	</clipPath>
	<g class="st0">
		<path d="M150.5,43v-6.3h-13V24.2h9.4v-6.3h-9.4V6.9h12.2V0.6h-19.5V43H150.5z M124.3,10.3c-0.6-6-4.2-10.3-10.1-10.3
			c-7.2,0-11.3,3.8-11.3,10.6c0,12.2,14.8,14.4,14.8,22.8c0,2.5-1.7,3.9-4.2,3.9c-2.3,0-4.1-2.1-4.3-6.4l-6.9,1
			c0.3,6.3,4.2,11.8,10.9,11.8c6.8,0,11.5-3.9,11.5-10.9c0-11.5-14.8-15-14.8-22.2c0-2.6,1.3-4.2,3.6-4.2c1.6,0,3.6,1.1,3.9,4.7
			L124.3,10.3z M82,11c0-3.2,0.9-4.7,3.9-4.7s3.9,1.5,3.9,4.7v21.5c0,3.2-0.9,4.7-3.9,4.7S82,35.7,82,32.5V11z M74.7,32.7
			c0,6,3.5,10.9,11.2,10.9s11.2-4.9,11.2-10.9V10.9c0-6-3.5-10.9-11.2-10.9S74.7,4.9,74.7,10.9V32.7z M70.3,43v-6.3H58.8V0.6h-7.3
			V43H70.3z M44.5,14.7v-3.1C44.5,5.3,41,0,33.7,0C26,0,22.5,4.9,22.5,10.9v21.9c0,6,3.5,10.9,11.2,10.9c7.3,0,10.8-4.9,10.8-10.9
			v-4.9h-7.3V33c0,2.8-0.9,4.3-3.5,4.3c-2.9,0-3.9-1.5-3.9-4.7V11c0-3.2,0.9-4.7,3.9-4.7c1.9,0,3.5,1.5,3.5,5.1v3.3L44.5,14.7z"/>
		<path d="M164.7,0.1v62.6H8.3V0.1H0v71l173,0l0-70.9H164.7z"/>
	</g>
</g>
</svg>
