<svg width="151" height="39" viewBox="0 0 151 39" fill="none" xmlns="http://www.w3.org/2000/svg">
<mask id="mask0_3002_30464" style="mask-type:luminance" maskUnits="userSpaceOnUse" x="5" y="0" width="141" height="38">
<path d="M146 0H5V38H146V0Z" fill="white"/>
</mask>
<g mask="url(#mask0_3002_30464)">
<path d="M130.605 33.4518L129.199 34.0249C128.868 33.2399 128.133 32.7469 127.002 32.7469C125.633 32.7469 124.595 33.532 124.595 34.7485C124.595 35.965 125.605 36.7413 126.975 36.7413C128.105 36.7413 129.088 36.2648 129.226 35.5862H126.442V34.395H130.706V37.9051H129.281V37.2441C128.914 37.6668 128.005 38.0017 126.966 38.0017C124.659 38.0017 123.023 36.6172 123.023 34.7309C123.023 32.8447 124.696 31.4766 127.039 31.4766C128.794 31.4766 130.099 32.2265 130.605 33.4518Z" fill="#FFFCF3"/>
<path d="M133.147 37.9021H131.613V31.5703H135.812C137.346 31.5703 138.376 32.2839 138.376 33.607C138.376 34.5589 137.815 35.2209 136.887 35.5031L138.531 37.9021H136.776L135.279 35.6535H133.146V37.9021H133.147ZM135.729 34.4546C136.455 34.4546 136.869 34.1461 136.869 33.6344C136.869 33.1228 136.455 32.8142 135.729 32.8142H133.147V34.4546H135.729Z" fill="#FFFCF3"/>
<path d="M140.808 37.9022H139.273V31.5703H143.426C144.979 31.5703 145.999 32.2763 145.999 33.6345C145.999 34.9926 144.979 35.6975 143.426 35.6975H140.808V37.9022ZM143.344 34.4634C144.069 34.4634 144.483 34.1549 144.483 33.6345C144.483 33.114 144.069 32.8143 143.344 32.8143H140.808V34.4634H143.344Z" fill="#FFFCF3"/>
<path d="M15.247 10.3834C20.0233 10.7929 23.3422 12.5892 24.6589 15.2638C23.2335 15.7337 21.8092 16.2113 20.3826 16.7043C19.7133 15.1133 17.9698 13.8957 15.247 13.7662C12.1891 13.6048 9.77631 15.109 9.77745 17.7649C9.77631 20.4208 12.1891 21.9261 15.247 21.7636C17.9698 21.6341 19.7145 20.4153 20.3826 18.8255C21.808 19.3185 23.2335 19.795 24.6589 20.266C23.3445 22.9406 20.0245 24.7369 15.247 25.1464C9.27522 25.7514 4.99886 22.8166 5 17.7638C5 12.711 9.27522 9.77734 15.247 10.3834Z" fill="#FFFCF3"/>
<path d="M45.125 11.173V24.3604C43.5646 24.3132 42.0041 24.2737 40.4437 24.2462V19.1573C37.3067 19.1452 34.1687 19.1419 31.0329 19.1496V24.2122C29.4725 24.2309 27.912 24.2638 26.3516 24.3099V11.2235C27.912 11.2707 29.4725 11.3025 31.0329 11.3212V16.1862C34.1698 16.1961 37.3067 16.1917 40.4437 16.1774V11.2861C42.0041 11.2575 43.5646 11.2191 45.125 11.1719V11.173Z" fill="#FFFCF3"/>
<path d="M60.3647 10.4688C63.1676 15.168 65.9693 20.1856 68.7721 25.5843C67.0595 25.4723 65.3481 25.3624 63.6366 25.2559C63.1195 24.2842 62.6013 23.3258 62.0842 22.3793C59.0834 22.2663 56.0815 22.1619 53.0795 22.0729C52.5624 22.9238 52.0442 23.7649 51.5271 24.5993C49.8705 24.5257 48.2151 24.4599 46.5586 24.4039C49.3695 20.0736 52.1803 15.5743 54.9901 10.7631C56.7816 10.6719 58.5731 10.573 60.3635 10.4688H60.3647ZM54.9191 19.0701C56.7107 19.0866 58.5022 19.1052 60.2938 19.1249C59.4026 17.5307 58.5102 15.9716 57.619 14.4433C56.7198 16.0177 55.8195 17.5593 54.9191 19.0711V19.0701Z" fill="#FFFCF3"/>
<path d="M74.8845 25.9949C73.324 25.8906 71.7636 25.7851 70.2031 25.6818V9.85387C73.8972 9.60902 77.5912 9.35649 81.2864 9.11495C85.4667 8.8163 88.2135 10.8321 88.2135 14.7551C88.2135 17.4461 86.78 19.4192 84.4394 20.235C85.8248 22.3892 87.2102 24.6059 88.5956 26.8797C86.8041 26.7732 85.0125 26.6612 83.221 26.5459C81.9946 24.5268 80.7682 22.5593 79.5429 20.6456C77.9905 20.6104 76.4381 20.5754 74.8856 20.5413V25.9959L74.8845 25.9949ZM81.0473 16.9499C82.6959 16.9433 83.6019 16.1527 83.6031 14.9725C83.6031 13.7186 82.6947 13.0148 81.0473 13.0763C78.9927 13.1499 76.9391 13.2246 74.8845 13.2993V16.9884C76.9391 16.9752 78.9927 16.9619 81.0473 16.9499Z" fill="#FFFCF3"/>
<path d="M90.3867 8.5494C91.9472 8.46047 93.5076 8.37592 95.0681 8.29688C95.0681 13.1498 95.0681 18.0027 95.0681 22.8568C98.6992 22.9556 102.329 23.0357 105.96 23.0895C105.96 24.6157 105.96 26.1418 105.96 27.668C100.77 27.5253 95.5783 27.2804 90.3867 26.9829V8.5494Z" fill="#FFFCF3"/>
<path d="M9.55846 1.26045V6.33187H8.02432V1.26045H5.15625V0H12.4151V1.26045H9.55731H9.55846Z" fill="#FFFCF3"/>
<path d="M20.1501 0V6.33187H18.6159V3.72205H14.6279V6.33187H13.0938V0H14.6279V2.46929H18.6159V0H20.1501Z" fill="#FFFCF3"/>
<path d="M27.5904 0V1.26044H22.702V2.47697H27.0665V3.72095H22.702V5.07033H27.5904V6.33077H21.1953V0H27.5904Z" fill="#FFFCF3"/>
<path d="M124.73 7.92188V12.5014H112.644V15.4538H123.369V19.9225H112.644V23.1504H124.73V27.73H108.059V7.92188H124.73Z" fill="#FFFCF3"/>
<path d="M128.429 20.4233C130.484 22.741 133.517 23.5678 135.954 23.5678C138.246 23.5678 139.847 22.9881 139.847 21.8572C139.847 20.5056 138.461 20.3947 134.186 19.8436C130.317 19.3736 126.854 18.3262 126.854 14.2429C126.854 10.1597 130.317 7.59375 135.428 7.59375C139.322 7.59375 142.784 8.97387 144.552 10.8492L141.805 14.6283C140.372 13.056 137.816 12.035 135.069 12.035C132.847 12.035 131.582 12.6421 131.582 13.6907C131.582 14.7392 132.825 14.9599 136.861 15.4562C140.826 15.9799 144.839 16.8626 144.839 21.2775C144.839 25.6923 141.017 28.065 135.668 28.065C131.941 28.065 127.523 26.686 125.684 24.5066L128.429 20.4233Z" fill="#FFFCF3"/>
</g>
</svg>
